<svg width="33" height="33" viewBox="0 0 33 33" fill="none" xmlns="http://www.w3.org/2000/svg">
<circle cx="16.7543" cy="16.7225" r="15.9145" fill="#7FCD93"/>
<path d="M16.7544 15.7669C16.2511 15.7669 15.759 15.9186 15.3405 16.2028C14.922 16.487 14.5958 16.891 14.4032 17.3636C14.2105 17.8362 14.1601 18.3563 14.2583 18.858C14.3565 19.3598 14.5989 19.8206 14.9548 20.1824C15.3108 20.5441 15.7642 20.7905 16.2579 20.8903C16.7516 20.9901 17.2633 20.9388 17.7283 20.7431C18.1934 20.5473 18.5908 20.2158 18.8705 19.7904C19.1501 19.3651 19.2994 18.865 19.2994 18.3534C19.2994 17.6674 19.0312 17.0095 18.554 16.5244C18.0767 16.0394 17.4294 15.7669 16.7544 15.7669ZM16.7544 19.2156C16.5866 19.2156 16.4226 19.165 16.2831 19.0703C16.1436 18.9756 16.0349 18.8409 15.9707 18.6834C15.9065 18.5258 15.8897 18.3525 15.9224 18.1852C15.9551 18.018 16.0359 17.8643 16.1546 17.7438C16.2732 17.6232 16.4243 17.5411 16.5889 17.5078C16.7535 17.4745 16.924 17.4916 17.079 17.5569C17.2341 17.6221 17.3665 17.7326 17.4598 17.8744C17.553 18.0162 17.6027 18.1829 17.6027 18.3534C17.6027 18.5821 17.5134 18.8014 17.3543 18.9631C17.1952 19.1248 16.9794 19.2156 16.7544 19.2156ZM16.1521 13.7925C16.2328 13.871 16.3279 13.9325 16.432 13.9735C16.5336 14.0191 16.6434 14.0427 16.7544 14.0427C16.8654 14.0427 16.9752 14.0191 17.0768 13.9735C17.1809 13.9325 17.276 13.871 17.3567 13.7925L19.2994 11.8525C19.4636 11.6856 19.5559 11.4592 19.5559 11.2232C19.5559 10.9871 19.4636 10.7607 19.2994 10.5938C19.1351 10.4268 18.9124 10.3331 18.6801 10.3331C18.4478 10.3331 18.2251 10.4268 18.0608 10.5938L17.6027 11.1024V8.0072C17.6027 7.77854 17.5134 7.55924 17.3543 7.39755C17.1952 7.23586 16.9794 7.14502 16.7544 7.14502C16.5294 7.14502 16.3136 7.23586 16.1546 7.39755C15.9955 7.55924 15.9061 7.77854 15.9061 8.0072V11.1024L15.448 10.5938C15.2837 10.4268 15.061 10.3331 14.8287 10.3331C14.5964 10.3331 14.3737 10.4268 14.2094 10.5938C14.0452 10.7607 13.9529 10.9871 13.9529 11.2232C13.9529 11.4592 14.0452 11.6856 14.2094 11.8525L16.1521 13.7925ZM22.6927 18.3534C22.6927 18.1829 22.6429 18.0162 22.5497 17.8744C22.4565 17.7326 22.324 17.6221 22.169 17.5569C22.014 17.4916 21.8434 17.4745 21.6788 17.5078C21.5143 17.5411 21.3631 17.6232 21.2445 17.7438C21.1259 17.8643 21.0451 18.018 21.0123 18.1852C20.9796 18.3525 20.9964 18.5258 21.0606 18.6834C21.1248 18.8409 21.2335 18.9756 21.373 19.0703C21.5126 19.165 21.6766 19.2156 21.8443 19.2156C22.0693 19.2156 22.2851 19.1248 22.4442 18.9631C22.6033 18.8014 22.6927 18.5821 22.6927 18.3534ZM23.541 12.3181H20.996C20.771 12.3181 20.5553 12.409 20.3962 12.5707C20.2371 12.7323 20.1477 12.9516 20.1477 13.1803C20.1477 13.409 20.2371 13.6283 20.3962 13.79C20.5553 13.9517 20.771 14.0425 20.996 14.0425H23.541C23.766 14.0425 23.9818 14.1333 24.1409 14.295C24.2999 14.4567 24.3893 14.676 24.3893 14.9047V21.8022C24.3893 22.0308 24.2999 22.2501 24.1409 22.4118C23.9818 22.5735 23.766 22.6643 23.541 22.6643H9.96782C9.74283 22.6643 9.52706 22.5735 9.36797 22.4118C9.20887 22.2501 9.1195 22.0308 9.1195 21.8022V14.9047C9.1195 14.676 9.20887 14.4567 9.36797 14.295C9.52706 14.1333 9.74283 14.0425 9.96782 14.0425H12.5128C12.7378 14.0425 12.9536 13.9517 13.1126 13.79C13.2717 13.6283 13.3611 13.409 13.3611 13.1803C13.3611 12.9516 13.2717 12.7323 13.1126 12.5707C12.9536 12.409 12.7378 12.3181 12.5128 12.3181H9.96782C9.29285 12.3181 8.64553 12.5906 8.16826 13.0757C7.69098 13.5608 7.42285 14.2187 7.42285 14.9047V21.8022C7.42285 22.4881 7.69098 23.146 8.16826 23.6311C8.64553 24.1162 9.29285 24.3887 9.96782 24.3887H23.541C24.216 24.3887 24.8633 24.1162 25.3406 23.6311C25.8178 23.146 26.086 22.4881 26.086 21.8022V14.9047C26.086 14.2187 25.8178 13.5608 25.3406 13.0757C24.8633 12.5906 24.216 12.3181 23.541 12.3181ZM10.8161 18.3534C10.8161 18.5239 10.8659 18.6906 10.9591 18.8324C11.0523 18.9742 11.1848 19.0847 11.3398 19.15C11.4948 19.2152 11.6654 19.2323 11.83 19.199C11.9945 19.1658 12.1457 19.0836 12.2643 18.9631C12.383 18.8425 12.4638 18.6889 12.4965 18.5216C12.5292 18.3544 12.5124 18.181 12.4482 18.0235C12.384 17.8659 12.2753 17.7313 12.1358 17.6365C11.9963 17.5418 11.8323 17.4912 11.6645 17.4912C11.4395 17.4912 11.2237 17.5821 11.0646 17.7438C10.9055 17.9054 10.8161 18.1247 10.8161 18.3534Z" fill="white"/>
</svg>
