<svg width="33" height="33" viewBox="0 0 33 33" fill="none" xmlns="http://www.w3.org/2000/svg">
<circle cx="16.5336" cy="16.7225" r="15.9145" fill="#A9B0E5"/>
<path d="M16.2075 19.3344C17.1048 18.7384 17.7864 17.8693 18.1513 16.8558C18.5163 15.8423 18.5453 14.7382 18.234 13.7069C17.9227 12.6757 17.2877 11.772 16.4229 11.1298C15.5581 10.4875 14.5095 10.1407 13.4322 10.1407C12.355 10.1407 11.3064 10.4875 10.4416 11.1298C9.57682 11.772 8.94178 12.6757 8.63048 13.7069C8.31918 14.7382 8.34816 15.8423 8.71313 16.8558C9.07811 17.8693 9.75968 18.7384 10.657 19.3344C9.12737 19.8987 7.80535 20.9144 6.86615 22.2471C6.81491 22.3189 6.77837 22.4001 6.75865 22.486C6.73892 22.572 6.73639 22.661 6.7512 22.7479C6.76601 22.8349 6.79787 22.918 6.84494 22.9926C6.89202 23.0672 6.95338 23.1317 7.0255 23.1825C7.09762 23.2332 7.17906 23.2693 7.26515 23.2884C7.35123 23.3076 7.44026 23.3095 7.5271 23.2941C7.61394 23.2788 7.69688 23.2464 7.77115 23.1988C7.84542 23.1512 7.90954 23.0894 7.95984 23.017C8.57703 22.139 9.39643 21.4224 10.3489 20.9277C11.3013 20.4329 12.3587 20.1747 13.432 20.1746C14.5052 20.1746 15.5627 20.4328 16.5152 20.9275C17.4676 21.4221 18.2871 22.1387 18.9043 23.0167C18.9548 23.0886 19.019 23.1498 19.0932 23.1969C19.1674 23.244 19.2502 23.276 19.3368 23.2911C19.4234 23.3062 19.5121 23.304 19.5978 23.2848C19.6836 23.2656 19.7647 23.2296 19.8366 23.179C19.9085 23.1284 19.9696 23.0642 20.0166 22.9899C20.0636 22.9157 20.0955 22.8329 20.1105 22.7463C20.1255 22.6597 20.1233 22.5709 20.104 22.4852C20.0846 22.3995 20.0486 22.3184 19.9979 22.2466C19.0588 20.9142 17.7369 19.8986 16.2075 19.3343V19.3344ZM9.75397 15.159C9.75397 14.4315 9.9697 13.7203 10.3739 13.1155C10.778 12.5106 11.3525 12.0391 12.0246 11.7607C12.6967 11.4823 13.4363 11.4095 14.1498 11.5514C14.8633 11.6934 15.5187 12.0437 16.0331 12.5581C16.5475 13.0725 16.8978 13.7279 17.0397 14.4414C17.1817 15.1549 17.1088 15.8945 16.8304 16.5666C16.552 17.2387 16.0806 17.8131 15.4757 18.2173C14.8708 18.6215 14.1597 18.8372 13.4322 18.8372C12.457 18.8361 11.5221 18.4482 10.8325 17.7587C10.143 17.0691 9.75508 16.1342 9.75397 15.159ZM26.6511 23.1785C26.5793 23.2291 26.4982 23.265 26.4125 23.2843C26.3268 23.3035 26.2382 23.3057 26.1516 23.2907C26.0651 23.2756 25.9824 23.2437 25.9082 23.1967C25.834 23.1497 25.7698 23.0886 25.7192 23.0168C25.1012 22.1396 24.2817 21.4236 23.3294 20.929C22.3772 20.4345 21.3201 20.1758 20.2471 20.1747C20.0697 20.1747 19.8996 20.1043 19.7742 19.9789C19.6488 19.8534 19.5783 19.6833 19.5783 19.506C19.5783 19.3286 19.6488 19.1585 19.7742 19.0331C19.8996 18.9077 20.0697 18.8372 20.2471 18.8372C20.7724 18.8366 21.2914 18.7235 21.7693 18.5056C22.2472 18.2876 22.6729 17.9698 23.0177 17.5736C23.3625 17.1774 23.6184 16.7119 23.7683 16.2085C23.9182 15.7051 23.9585 15.1754 23.8865 14.6551C23.8146 14.1348 23.632 13.636 23.3512 13.1921C23.0703 12.7483 22.6976 12.3697 22.2582 12.0819C21.8188 11.7942 21.3229 11.6038 20.8038 11.5238C20.2847 11.4437 19.7544 11.4757 19.2487 11.6177C19.0782 11.665 18.8959 11.6428 18.7418 11.5559C18.5876 11.4691 18.4741 11.3247 18.4262 11.1543C18.3783 10.984 18.3998 10.8016 18.4861 10.6472C18.5724 10.4927 18.7164 10.3787 18.8865 10.3301C20.037 10.0055 21.2655 10.1026 22.3507 10.6037C23.436 11.1049 24.3065 11.9772 24.8054 13.0634C25.3044 14.1497 25.3989 15.3784 25.072 16.5282C24.745 17.678 24.0182 18.6732 23.0223 19.3344C24.5518 19.8986 25.8737 20.9142 26.8128 22.2467C26.9149 22.3917 26.9553 22.5713 26.9249 22.7461C26.8946 22.9208 26.7961 23.0764 26.6511 23.1785Z" fill="white"/>
</svg>
