<svg width="32" height="33" viewBox="0 0 32 33" fill="none" xmlns="http://www.w3.org/2000/svg">
<circle cx="16.0742" cy="16.7225" r="15.9145" fill="#DEBF85"/>
<path d="M11.8714 12.6189C12.0494 12.7955 12.2901 12.8946 12.5409 12.8946C12.7917 12.8946 13.0323 12.7955 13.2104 12.6189C13.2981 12.532 13.3677 12.4286 13.4152 12.3146C13.4627 12.2006 13.4872 12.0784 13.4872 11.9549C13.4872 11.8315 13.4627 11.7092 13.4152 11.5952C13.3677 11.4813 13.2981 11.3778 13.2104 11.2909C13.0323 11.1143 12.7917 11.0152 12.5409 11.0152C12.2901 11.0152 12.0494 11.1143 11.8714 11.2909C11.5028 11.6582 11.5028 12.2528 11.8714 12.6189ZM22.708 18.1472C22.9377 17.9197 23.1199 17.6489 23.2443 17.3506C23.3687 17.0522 23.4328 16.7322 23.4328 16.4089C23.4328 16.0856 23.3687 15.7656 23.2443 15.4672C23.1199 15.1688 22.9377 14.8981 22.708 14.6705L16.8603 8.85969C16.3978 8.40085 15.7735 8.14227 15.122 8.13979L11.1121 8.12259C10.7861 8.12031 10.4628 8.18273 10.161 8.30624C9.85924 8.42974 9.58496 8.61188 9.35405 8.8421C9.12314 9.07233 8.94019 9.34606 8.81579 9.64747C8.69139 9.94888 8.628 10.272 8.62931 10.598L8.6588 14.7418C8.66411 15.3883 8.92463 16.0064 9.38362 16.4617L15.1453 22.1866C15.6105 22.6474 16.2388 22.9059 16.8935 22.9059C17.5482 22.9059 18.1765 22.6474 18.6417 22.1866L22.708 18.1472ZM21.8333 15.5391C21.9482 15.6529 22.0393 15.7883 22.1015 15.9374C22.1637 16.0866 22.1957 16.2466 22.1957 16.4083C22.1957 16.5699 22.1637 16.7299 22.1015 16.8791C22.0393 17.0283 21.9482 17.1637 21.8333 17.2774L17.767 21.3192C17.2842 21.7984 16.5016 21.7984 16.0188 21.3192L10.2571 15.5932C10.028 15.3654 9.89817 15.0563 9.89591 14.7332L9.86519 10.5894C9.86438 10.4263 9.89597 10.2646 9.95814 10.1137C10.0203 9.96287 10.1118 9.82587 10.2274 9.71067C10.3429 9.59547 10.4802 9.50436 10.6312 9.44263C10.7823 9.38091 10.9441 9.3498 11.1072 9.3511L15.1171 9.3683C15.443 9.36938 15.7555 9.49868 15.9869 9.72825L21.8346 15.5391H21.8333ZM23.369 18.8721C23.534 19.3137 23.5685 19.7935 23.4683 20.2543C23.3681 20.715 23.1374 21.1371 22.8039 21.4704L20.3911 23.8832C19.9348 24.3395 19.393 24.7015 18.7968 24.9484C18.2006 25.1954 17.5616 25.3225 16.9162 25.3225C16.2709 25.3225 15.6319 25.1954 15.0356 24.9484C14.4394 24.7015 13.8977 24.3395 13.4414 23.8832L9.16372 19.6055C8.81803 19.2602 8.6236 18.7918 8.62317 18.3033V17.345L13.4414 22.1632C13.5262 22.248 13.6134 22.3291 13.7018 22.4053L14.3099 23.0146C14.6522 23.3569 15.0585 23.6284 15.5057 23.8137C15.9529 23.9989 16.4322 24.0943 16.9162 24.0943C17.4003 24.0943 17.8796 23.9989 18.3268 23.8137C18.774 23.6284 19.1803 23.3569 19.5225 23.0146L20.1355 22.4016C20.2235 22.3251 20.3087 22.2456 20.3911 22.1632L22.8039 19.7504C23.0532 19.5017 23.246 19.2021 23.369 18.8721Z" fill="white"/>
</svg>
