<svg width="33" height="33" viewBox="0 0 33 33" fill="none" xmlns="http://www.w3.org/2000/svg">
<circle cx="16.2143" cy="16.7914" r="15.9145" fill="#ECA4A4"/>
<path d="M23.9268 17.2401C24.2734 16.7821 24.4652 16.221 24.4652 15.6373C24.4652 14.711 23.9475 13.8343 23.1141 13.3454C22.8995 13.2196 22.6552 13.1533 22.4065 13.1536H17.4598L17.5836 10.6183C17.6124 10.0057 17.3958 9.42393 16.975 8.98042C16.7685 8.76182 16.5193 8.58789 16.2429 8.46938C15.9665 8.35087 15.6688 8.29031 15.3681 8.29143C14.2954 8.29143 13.3465 9.01343 13.0618 10.0469L11.2898 16.4624H8.62252C8.25739 16.4624 7.9624 16.7574 7.9624 17.1225V24.6313C7.9624 24.9964 8.25739 25.2914 8.62252 25.2914H21.0265C21.2162 25.2914 21.4019 25.2543 21.5731 25.18C22.555 24.7613 23.1883 23.802 23.1883 22.7376C23.1883 22.4777 23.1512 22.2219 23.0769 21.9743C23.4235 21.5164 23.6153 20.9553 23.6153 20.3715C23.6153 20.1116 23.5782 19.8558 23.504 19.6082C23.8505 19.1503 24.0424 18.5892 24.0424 18.0054C24.0382 17.7455 24.0011 17.4876 23.9268 17.2401ZM9.44766 23.8062V17.9477H11.1186V23.8062H9.44766ZM22.5757 16.5243L22.1239 16.9162L22.4106 17.4402C22.5051 17.6128 22.5541 17.8066 22.553 18.0033C22.553 18.3437 22.4044 18.6676 22.1487 18.8904L21.6969 19.2823L21.9836 19.8063C22.0781 19.9789 22.1271 20.1727 22.126 20.3694C22.126 20.7098 21.9774 21.0337 21.7216 21.2565L21.2699 21.6484L21.5566 22.1724C21.6511 22.345 21.7001 22.5388 21.699 22.7355C21.699 23.1976 21.4267 23.6143 21.0058 23.8041H12.4388V17.8816L14.4913 10.445C14.5443 10.2544 14.6579 10.0863 14.815 9.96605C14.9721 9.84581 15.164 9.78006 15.3619 9.77875C15.5186 9.77875 15.6734 9.82413 15.7971 9.91696C16.0013 10.0696 16.1107 10.3006 16.0983 10.5461L15.9003 14.6388H22.3859C22.7531 14.8637 22.98 15.2432 22.98 15.6373C22.98 15.9776 22.8315 16.2994 22.5757 16.5243Z" fill="white"/>
</svg>
